<svg xmlns="http://www.w3.org/2000/svg" xmlns:xlink="http://www.w3.org/1999/xlink" width="32" height="32" viewBox="0 0 32 32">
    <defs>
        <path id="a" d="M0 0h32v32H0z"/>
    </defs>
    <g fill="none" fill-rule="evenodd">
        <mask id="b" fill="#fff">
            <use xlink:href="#a"/>
        </mask>
        <g fill="#9B9B9B" mask="url(#b)">
            <path d="M29.196 27.999H2.56A2.559 2.559 0 0 1 0 25.443V8.018a2.563 2.563 0 0 1 2.56-2.555h26.636c1.409 0 2.56 1.148 2.56 2.555v17.425A2.56 2.56 0 0 1 29.196 28zM2.56 6.486c-.845 0-1.535.689-1.535 1.532v17.425c0 .849.69 1.532 1.535 1.532h26.636a1.53 1.53 0 0 0 1.534-1.532V8.018c0-.843-.685-1.532-1.534-1.532H2.56z"/>
            <path d="M15.88 19.3c-.685 0-1.365-.225-1.88-.675L.91 7.24a.511.511 0 0 1-.045-.723.508.508 0 0 1 .72-.05L14.67 17.852c.655.568 1.76.568 2.415 0L30.165 6.47a.508.508 0 0 1 .725.05.507.507 0 0 1-.05.719L17.76 18.62c-.52.455-1.2.68-1.88.68z"/>
        </g>
    </g>
</svg>
