<svg xmlns="http://www.w3.org/2000/svg" xmlns:xlink="http://www.w3.org/1999/xlink" width="32" height="32" viewBox="0 0 32 32">
    <defs>
        <path id="a" d="M0 0h32v32H0z"/>
        <path id="c" d="M0 .279h29.736V30.72H0z"/>
    </defs>
    <g fill="none" fill-rule="evenodd">
        <mask id="b" fill="#fff">
            <use xlink:href="#a"/>
        </mask>
        <g mask="url(#b)">
            <g transform="translate(1 1)">
                <mask id="d" fill="#fff">
                    <use xlink:href="#c"/>
                </mask>
                <path fill="#9B9B9B" d="M23.896 30.721c-1.24 0-2.733-.32-4.375-.955-3.604-1.39-7.519-4.14-11.035-7.735C4.971 18.432 2.29 14.417.927 10.726-.307 7.376-.307 4.622.918 3.361c.182-.179.362-.375.548-.574C2.587 1.577 3.886.207 5.537.282c1.162.044 2.285.784 3.438 2.25 3.394 4.325 1.865 5.865.093 7.654l-.318.32c-.287.296-.835 1.67 4.262 6.89 1.665 1.705 3.082 2.95 4.22 3.706.712.475 1.987 1.194 2.51.654l.317-.325c1.742-1.81 3.251-3.374 7.475.105 1.431 1.175 2.149 2.326 2.197 3.516.069 1.72-1.274 3.025-2.456 4.174-.19.191-.38.37-.556.55-.615.63-1.591.945-2.823.945zM5.42 1.301c-1.196 0-2.275 1.16-3.228 2.19-.195.206-.38.41-.566.596-.913.934-.82 3.405.239 6.28 1.309 3.56 3.911 7.444 7.329 10.94 3.418 3.5 7.207 6.164 10.678 7.505 2.813 1.085 5.22 1.18 6.14.24.18-.185.374-.375.575-.57 1.03-1 2.192-2.136 2.143-3.39-.034-.865-.649-1.796-1.826-2.76-3.52-2.895-4.502-1.87-6.133-.18l-.322.33c-.777.8-2.04.625-3.764-.52-1.191-.796-2.666-2.09-4.38-3.845-4.229-4.33-5.586-6.981-4.258-8.34l.317-.32c1.661-1.676 2.656-2.68-.17-6.285-.948-1.206-1.857-1.836-2.697-1.87H5.42zM24.073 12.856a.53.53 0 0 1-.192-.034.514.514 0 0 1-.272-.666 4.39 4.39 0 0 0-.924-4.664 4.165 4.165 0 0 0-4.706-.876.497.497 0 0 1-.66-.254.519.519 0 0 1 .25-.68 5.129 5.129 0 0 1 5.82 1.09 5.399 5.399 0 0 1 1.142 5.77.499.499 0 0 1-.458.314z" mask="url(#d)"/>
                <path fill="#9B9B9B" d="M28.535 14.711a.498.498 0 0 1-.19-.035.512.512 0 0 1-.274-.664c1.368-3.45.586-7.375-1.982-10.006-2.636-2.704-6.694-3.46-10.093-1.884a.504.504 0 0 1-.664-.26.518.518 0 0 1 .25-.675c3.778-1.75 8.285-.91 11.215 2.095 2.857 2.92 3.715 7.284 2.202 11.114a.502.502 0 0 1-.464.315z" mask="url(#d)"/>
            </g>
        </g>
    </g>
</svg>
